<svg xmlns="http://www.w3.org/2000/svg" xmlns:xlink="http://www.w3.org/1999/xlink" version="1.1" id="view" x="0px"
	y="0px" viewBox="0 0 595.28 620.28" style="enable-background:new 0 0 595.28 620.28;" xml:space="preserve">
	<style type="text/css">
		.st0 {
			display: none;
			fill: none;
			stroke: #000000;
			stroke-miterlimit: 10;
		}

		.st1 {
			fill: #007bff;
			stroke: #000000;
			stroke-miterlimit: 10;
			opacity: 0.5
		}

		.st1_selected {
			fill: red;
			stroke: #000000;
			stroke-miterlimit: 10;
			opacity: 0.4
		}

		.st1:hover {
			opacity: 1.0;
		}

		.st2 {
			font-family: 'YouYuan';
		}

		.st3 {
			font-size: 18px;
			cursor: pointer
		}

		.st4 {
			display: none;
			fill: #00A0E9;
			stroke: #000000;
			stroke-miterlimit: 10;
		}

		.st5 {
			font-size: 24px;
			cursor: pointer
		}
	</style>
	<!-- st2 st5 st_label font-size="24px" cursor="pointer" font-family="YouYuan" -->
<!-- font-size="18px" cursor="pointer" font-family="YouYuan" font-size="18px" cursor="pointer" font-family="YouYuan" -->
	<!-- fill="#007bff"
stroke="#000000"
stroke-miterlimit="10"
opacity="0.5" -->
	<g id="front_x5F_view">
		<!-- <line id="line_1_" class="st0" x1="160.43" y1="0" x2="160.43" y2="595.28"/> -->
		<g
   			name="面部"
   			id="g1">
		<path fill="#007bff" stroke="#000000" stroke-miterlimit="10" opacity="0.5"
			d="M 184.6,65.4 175,52.14 160.43,49.63 145.86,52.14 136.26,65.4 133.97,83.23    138.09,103.8 144.71,113.51 152.26,118.88 160.43,119.8 168.6,118.88 176.15,113.51 182.77,103.8 186.89,83.23  z" />
		</g>
		<g
   			name="颈胸部"
   			id="g13">
		<path fill="#007bff" stroke="#000000" stroke-miterlimit="10" opacity="0.5"
			d="M 214.68,143.42 191.98,139.46 179.53,128.79 179.53,109.24 175.9,113.51    168.35,118.88 160.31,119.79 152.26,118.88 144.71,113.51 141.09,109.24 141.09,128.79 128.64,139.46 105.93,143.42 105.77,186.4    108.68,190.2 160.19,190.2 160.43,190.2 211.94,190.2 214.46,186.4  z" />
		</g>
		<g
   			name="腹部（前）"
   			id="g15">
		<path fill="#007bff" stroke="#000000" stroke-miterlimit="10" opacity="0.5"
			d="M 160.56,190.2 160.56,190.2 160.19,190.2 108.68,190.2 110.35,224.79 113.1,241.86    160.37,241.78 207.65,241.86 210.39,224.79 212.07,190.2  z" />
		</g>
		<g
   			name="腰部（前）"
   			id="g17">
		<path fill="#007bff" stroke="#000000" stroke-miterlimit="10" opacity="0.5"
			d="M 207.35,265.17 207.65,241.86 160.37,241.78 113.1,241.86 113.4,265.17    108.68,282.85 123.61,271.72 160.37,270.66 197.14,271.72 212.07,282.85  z" />
		</g>
		<g
   			name="盆部（右）"
   			id="g19">
		<path fill="#007bff" stroke="#000000" stroke-miterlimit="10" opacity="0.5"
			d="M 160.37,270.66 123.61,271.72 108.68,282.85 103.5,307.99 103.5,337.7 151.19,337.7    151.65,326.12 155.61,322.47 160.37,321.82  z" />
		</g>
		<g
   			name="大腿（右前）"
   			id="g25">
		<path fill="#007bff" stroke="#000000" stroke-miterlimit="10" opacity="0.5"
			d="M 151.19,337.7 103.5,337.7 106.09,379.76 109.29,400.33 108.52,424.1 107.46,434.92    147.99,434.92 147.23,425.02 149.21,400.64 150.28,378.39  z" />
		</g>
		<g
   			name="小腿（右前）"
   			id="g29">
		<path fill="#007bff" stroke="#000000" stroke-miterlimit="10" opacity="0.5"
			d="M 147.99,434.92 107.46,434.92 109.13,466.77 112.03,496.18 115.08,517.97    118.58,537.02 118.73,546.16 117.82,552.36 137.02,552.56 139.49,517.4 142.73,497.48 146.16,469.06  z" />
		</g>
		<g
   			name="右足"
   			id="g33">
		<path fill="#007bff" stroke="#000000" stroke-miterlimit="10" opacity="0.5"
			d="M 137.02,552.56 117.82,552.36 116.3,561.25 112.33,566.43 108.83,570.89    109.97,573.86 112.83,575.8 117.06,576.49 132.49,576.49 138.7,573.59 139.15,570.24 136.94,562.77  z" />
		</g>
		<g
   			name="盆部（左）"
   			id="g22">
		<path fill="#007bff" stroke="#000000" stroke-miterlimit="10" opacity="0.5"
			d="M 160.43,270.66 197.19,271.72 212.13,282.85 217.31,307.99 217.31,337.7    169.61,337.7 169.15,326.12 165.19,322.47 160.43,321.82  z" />
		</g>
		<g
   			name="大腿（左前）"
   			id="g27">
		<path fill="#007bff" stroke="#000000" stroke-miterlimit="10" opacity="0.5"
			d="M 169.61,337.7 217.31,337.7 214.72,379.76 211.52,400.33 212.28,424.1 213.34,434.92    172.81,434.92 173.57,425.02 171.59,400.64 170.53,378.39  z" />
		</g>
		<g
   			name="小腿（左前）"
   			id="g31">
		<path fill="#007bff" stroke="#000000" stroke-miterlimit="10" opacity="0.5"
			d="M 172.81,434.92 213.34,434.92 211.67,466.77 208.77,496.18 205.73,517.97    202.22,537.02 202.07,546.16 202.98,552.36 183.78,552.56 181.32,517.4 178.07,497.48 174.64,469.06  z" />
		</g>
		<g
   			name="左足"
   			id="g34">
		<path fill="#007bff" stroke="#000000" stroke-miterlimit="10" opacity="0.5"
			d="M 183.78,552.56 202.98,552.36 204.51,561.25 208.47,566.43 211.97,570.89    210.83,573.86 207.97,575.8 203.74,576.49 188.32,576.49 182.11,573.59 181.65,570.24 183.86,562.77  z" />
		</g>
		<g
   			name="右上臂（内侧）"
   			id="g3">
		<path fill="#007bff" stroke="#000000" stroke-miterlimit="10" opacity="0.5"
			d="M 105.93,143.42 105.77,186.4 101.01,206.18 98.81,224.05 94.58,243.78 94.62,245.96    90.21,242.15 77.24,239.52 72.58,240.97 72.09,230.12 77.66,184.99 80.54,162.6 86.07,150.98 95.69,144.83  z" />
		</g>
		<g
   			name="右前臂（内侧）"
   			id="g7">
		<path fill="#007bff" stroke="#000000" stroke-miterlimit="10" opacity="0.5"
			d="M 94.62,245.96 90.21,242.15 77.24,239.52 72.58,240.97 68.83,250.54 65.4,269.97    62.77,293.51 63.23,308.49 60.37,320.03 65.17,318.31 74.2,320.6 77.49,325.06 83,301.74 88.73,286.53 93.29,262.31  z" />
		</g>
		<g
   			name="右手"
   			id="g11">
		<path fill="#007bff" stroke="#000000" stroke-miterlimit="10" opacity="0.5"
			d="M 77.49,325.06 74.2,320.6 65.17,318.31 60.37,320.03 57.4,334.09 57.4,354.2    58.35,364.93 60.04,369.72 62,372.34 65.58,372.64 66.66,368.71 68.6,351.11 71.23,339.8 72.83,337.17 74.52,338.02 75.8,349.63    76.97,352.91 78.97,353.37 81.06,351.46 81.06,346.89 81.51,336.54  z" />
		</g>
		<g
   			name="左上臂（内侧）"
   			id="g5">
		<path fill="#007bff" stroke="#000000" stroke-miterlimit="10" opacity="0.5"
			d="M 214.3,143.42 214.46,186.4 219.22,206.18 221.42,224.05 225.65,243.78 225.61,245.96    230.02,242.15 242.98,239.52 247.65,240.97 248.13,230.12 242.56,184.99 239.69,162.6 234.16,150.98 224.54,144.83  z" />
		</g>
		<g
   			name="左前臂（外侧）"
   			id="g9">
		<path fill="#007bff" stroke="#000000" stroke-miterlimit="10" opacity="0.5"
			d="M 225.61,245.96 230.02,242.15 242.98,239.52 247.65,240.97 251.4,250.54    254.83,269.97 257.46,293.51 257,308.49 259.86,320.03 255.06,318.31 246.03,320.6 242.73,325.06 237.23,301.74 231.5,286.53    226.94,262.31  z" />
		</g>
		<g
   			name="左手"
   			id="g12">
		<path fill="#007bff" stroke="#000000" stroke-miterlimit="10" opacity="0.5"
			d="M 242.73,325.06 246.03,320.6 255.06,318.31 259.86,320.03 262.83,334.09    262.83,354.2 261.88,364.93 260.19,369.72 258.23,372.34 254.65,372.64 253.57,368.71 251.63,351.11 249,339.8 247.4,337.17    245.71,338.02 244.43,349.63 243.26,352.91 241.26,353.37 239.17,351.46 239.17,346.89 238.71,336.54  z" />
		</g>

		<g>
			<title>面部</title>
			<text transform="matrix(1 0 0 1 155.93 88.8413)" font-size="18px" cursor="pointer" font-family="YouYuan">1</text>
		</g>
		<g>
			<title>左手</title>
			<text transform="matrix(1 0 0 1 241.8731 336.2236)" font-size="18px" cursor="pointer" font-family="YouYuan">12</text>
		</g>
		<g>
			<title>大腿（左前）</title>
			<text transform="matrix(1 0 0 1 184.0782 379.7685)" font-size="18px" cursor="pointer" font-family="YouYuan">27</text>
		</g>
		<g>
			<title>小腿（左前）</title>
			<text transform="matrix(1 0 0 1 184.4591 476.9733)" font-size="18px" cursor="pointer" font-family="YouYuan">31</text>
		</g>
		<g>
			<title>左足</title>
			<text transform="matrix(1 0 0 1 185.4592 567.4208)" font-size="18px" cursor="pointer" font-family="YouYuan">34</text>
		</g>
		<g>
			<title>右足</title>
			<text transform="matrix(1 0 0 1 117.7238 567.4205)" font-size="18px" cursor="pointer" font-family="YouYuan">33</text>
		</g>
		<g>
			<title>小腿（右前）</title>
			<text transform="matrix(1 0 0 1 118.343 476.9738)" font-size="18px" cursor="pointer" font-family="YouYuan">29</text>
		</g>
		<g>
			<title>大腿（右前）</title>
			<text transform="matrix(1 0 0 1 118.724 379.7687)" font-size="18px" cursor="pointer" font-family="YouYuan">25</text>
		</g>
		<g>
			<title>盆部（右）</title>
			<text transform="matrix(1 0 0 1 118.4024 313.1652)" font-size="18px" cursor="pointer" font-family="YouYuan">19</text>
		</g>
		<g>
			<title>腰部（前）</title>
			<text transform="matrix(1 0 0 1 152.2888 262.5815)" font-size="18px" cursor="pointer" font-family="YouYuan">17</text>
		</g>
		<g>
			<title>腹部（前）</title>
			<text transform="matrix(1 0 0 1 151.4298 218.7889)" font-size="18px" cursor="pointer" font-family="YouYuan">15</text>
		</g>
		<g>
			<title>颈胸部</title>
			<text transform="matrix(1 0 0 1 151.4302 161.7002)" font-size="18px" cursor="pointer" font-family="YouYuan">13</text>
		</g>
		<g>
			<title>右上臂（内侧）</title>
			<text transform="matrix(1 0 0 1 84.5136 205.1596)" font-size="18px" cursor="pointer" font-family="YouYuan">3</text>
		</g>
		<g>
			<title>右前臂（内侧）</title>
			<text transform="matrix(1 0 0 1 72.9939 282.2862)" font-size="18px" cursor="pointer" font-family="YouYuan">7</text>
		</g>
		<g>
			<title>左前臂（内侧）</title>
			<text transform="matrix(1 0 0 1 240.6597 282.2862)" font-size="18px" cursor="pointer" font-family="YouYuan">9</text>
		</g>
		<g>
			<title>左上臂（内侧）</title>
			<text transform="matrix(1 0 0 1 226.7149 205.1595)" font-size="18px" cursor="pointer" font-family="YouYuan">5</text>
		</g>
		<g>
			<title>盆部（左）</title>
			<text transform="matrix(1 0 0 1 184.4593 313.1654)" font-size="18px" cursor="pointer" font-family="YouYuan">22</text>
		</g>
		<g>
			<title>右手</title>
			<text transform="matrix(1 0 0 1 59.6286 336.2234)" font-size="18px" cursor="pointer" font-family="YouYuan">11</text>
		</g>
	</g>
	<g id="back_x5F_view">
		<!-- <line id="line" class="st4" x1="454.91" y1="0" x2="454.91" y2="595.28"/> -->
		<g
   			name="头后部"
   			id="g2">
		<path fill="#007bff" stroke="#000000" stroke-miterlimit="10" opacity="0.5"
			d="M 474.87,57.9 466.01,51.23 454.91,49.58 443.82,51.23 434.95,57.9 428.55,71.25    429.47,92.19 431.57,100.23 434.68,104.62 436.33,107.55 436.51,117.88 436.69,123.73 441.72,120.99 454.91,120.77 468.11,120.99    473.14,123.73 473.32,117.88 473.5,107.55 475.15,104.62 478.26,100.23 480.36,92.19 481.27,71.25  z" />
		</g>
		<g
   			name="颈背部"
   			id="g14">
		<path fill="#007bff" stroke="#000000" stroke-miterlimit="10" opacity="0.5"
			d="M 484.81,137.78 476.73,132.3 473.14,123.73 468.11,120.99 454.91,120.77    441.72,120.99 436.69,123.73 433.1,132.3 425.02,137.78 399.11,144.64 399.11,187.61 402.31,189.74 454.91,189.74 507.51,189.74    510.71,187.61 510.71,144.64  z" />
		</g>
		<g
   			name="腹部（后）"
   			id="g16">
		<path fill="#007bff" stroke="#000000" stroke-miterlimit="10" opacity="0.5"
			d="M 402.31,189.74 406.12,232.71 409.02,241.4 454.91,241.4 500.81,241.4 503.7,232.71    507.51,189.74  z" />
		</g>
		<g
   			name="腰部（后）"
   			id="g18">
		<path fill="#007bff" stroke="#000000" stroke-miterlimit="10" opacity="0.5"
			d="M 502.33,269.44 500.81,241.4 454.91,241.4 409.02,241.4 407.5,269.44 402.31,280.71    402.31,290.47 416.79,273.86 442.85,273.4 454.91,282.82 466.98,273.4 493.04,273.86 507.51,290.47 507.51,280.71  z" />
		</g>
		<g
   			name="腰骶部（左）"
   			id="g23">
		<path fill="#007bff" stroke="#000000" stroke-miterlimit="10" opacity="0.5"
			d="M 454.91,282.82 442.85,273.4 416.79,273.86 401.85,291.47 454.91,291.47  z" />
		</g>
		<g
   			name="臀部（左）"
   			id="g24">
		<path fill="#007bff" stroke="#000000" stroke-miterlimit="10" opacity="0.5"
			d="M 454.91,291.47 401.85,291.47 397.02,305.36 398.86,337.29 445.26,337.29    446.7,325.12 450.39,322.37 454.91,321.33  z" />
		</g>
		<g
   			name="大腿（左后）"
   			id="g28">
		<path fill="#007bff" stroke="#000000" stroke-miterlimit="10" opacity="0.5"
			d="M 445.26,337.29 398.86,337.29 399.07,368.17 402.01,390.8 403.45,424.24    411.72,414.6 431.48,414.02 440.97,424.19 441.99,396.85 444.69,372.79  z" />
		</g>
		<g
   			name="小腿（左后）"
   			id="g32">
		<path fill="#007bff" stroke="#000000" stroke-miterlimit="10" opacity="0.5"
			d="M 440.97,424.19 431.48,414.02 411.72,414.6 403.45,424.24 403.45,444.57    403.07,469.79 404.34,484.43 406.86,511.66 411.23,539.23 411.49,547.14 416.04,544.24 425.86,544.07 430.99,546.36 431.11,535.57    436.58,500.19 438.14,481.33 440.67,442.74  z" />
		</g>
		<g
   			name="小腿（右后）"
   			id="g30">
		<path fill="#007bff" stroke="#000000" stroke-miterlimit="10" opacity="0.5"
			d="M 468.82,424.03 478.31,413.86 498.07,414.43 506.33,424.08 506.33,444.41    506.72,469.63 505.45,484.26 502.92,511.5 498.56,539.07 498.29,546.98 493.75,544.08 483.93,543.91 478.8,546.2 478.67,535.41    473.21,500.03 471.65,481.17 469.12,442.57  z" />
		</g>
		<g
   			name="左足"
   			id="g34">
		<path fill="#007bff" stroke="#000000" stroke-miterlimit="10" opacity="0.5"
			d="M 430.99,546.36 425.86,544.07 416.04,544.24 411.49,547.14 411.49,556.71    409.51,564.26 407.46,567.8 407.46,572.43 410.09,575.8 427.8,575.8 431.42,574.5 434.09,570.77 433.74,567.51 431.8,559.93  z" />
		</g>
		<g
   			name="腰骶部（右）"
   			id="g20">
		<path fill="#007bff" stroke="#000000" stroke-miterlimit="10" opacity="0.5"
			d="M 454.91,282.82 466.98,273.4 493.04,273.86 507.98,291.47 454.91,291.47  z" />
		</g>
		<g
   			name="臀部（右）"
   			id="g21">
		<path fill="#007bff" stroke="#000000" stroke-miterlimit="10" opacity="0.5"
			d="M 454.91,291.47 507.98,291.47 512.81,305.36 510.97,337.29 464.57,337.29    463.13,325.12 459.44,322.37 454.91,321.33  z" />
		</g>
		<g
   			name="大腿（右后）"
   			id="g26">
		<path fill="#007bff" stroke="#000000" stroke-miterlimit="10" opacity="0.5"
			d="M 464.57,337.29 510.97,337.29 510.76,368.17 507.82,390.8 506.37,424.24 498.1,414.6    478.35,414.02 468.86,424.19 467.84,396.85 465.14,372.79  z" />
		</g>
		<g
   			name="右足"
   			id="g33">
		<path fill="#007bff" stroke="#000000" stroke-miterlimit="10" opacity="0.5"
			d="M 478.84,546.36 483.97,544.07 493.79,544.24 498.33,547.14 498.33,556.71    500.31,564.26 502.37,567.8 502.37,572.43 499.74,575.8 482.03,575.8 478.41,574.5 475.74,570.77 476.09,567.51 478.03,559.93  z" />
		</g>
		<g
   			name="左上臂（外侧）"
   			id="g6">
		<path fill="#007bff" stroke="#000000" stroke-miterlimit="10" opacity="0.5"
			d="M 399.11,144.64 387.69,149.72 378.37,161.23 376.02,175.26 368.22,208.1    366.66,232.26 365.11,242.2 388.37,245.51 391.68,222.96 395.46,207.8 399.11,187.61  z" />
		</g>
		<g
   			name="左前臂（外侧）"
   			id="g10">
		<path fill="#007bff" stroke="#000000" stroke-miterlimit="10" opacity="0.5"
			d="M 388.37,245.51 365.11,242.2 360.62,257.22 358.25,278.34 357.51,297.64    356.71,312.71 355.23,321.06 371.97,324.26 373.97,313.87 379.57,296.26 384.09,279.6 385.67,266.79 387.23,254.2  z" />
		</g>
		<g
   			name="左手"
   			id="g12">
		<path fill="#007bff" stroke="#000000" stroke-miterlimit="10" opacity="0.5"
			d="M 371.97,324.26 355.23,321.06 352.03,338.66 352.03,352.71 353.29,366.23    354.88,371.26 359.34,371.57 362,368.26 363,363.69 365.06,339.23 366.77,338.09 368.94,338.31 369.31,342.35 369.86,350.77    372.6,353.17 375,350.09 374.43,331.91  z" />
		</g>
		<g
   			name="右上臂（外侧）"
   			id="g4">
		<path fill="#007bff" stroke="#000000" stroke-miterlimit="10" opacity="0.5"
			d="M 510.71,144.68 522.14,149.76 531.46,161.27 533.81,175.3 541.61,208.14 543.17,232.3    544.71,242.24 521.46,245.55 518.14,223 514.37,207.84 510.71,187.65  z" />
		</g>
		<g
   			name="右前臂（外侧）"
   			id="g8">
		<path fill="#007bff" stroke="#000000" stroke-miterlimit="10" opacity="0.5"
			d="M 521.46,245.55 544.71,242.24 549.21,257.26 551.58,278.38 552.31,297.68    553.11,312.75 554.6,321.1 537.86,324.3 535.86,313.91 530.26,296.3 525.74,279.64 524.16,266.83 522.6,254.24  z" />
		</g>
		<g
   			name="右手"
   			id="g11">
		<path fill="#007bff" stroke="#000000" stroke-miterlimit="10" opacity="0.5"
			d="M 537.86,324.3 554.6,321.1 557.8,338.7 557.8,352.75 556.54,366.27 554.95,371.3    550.49,371.61 547.83,368.3 546.83,363.73 544.77,339.27 543.06,338.13 540.89,338.35 540.52,342.39 539.97,350.81 537.23,353.21    534.83,350.13 535.4,331.95  z" />
		</g>

		<g>
			<title>头后部</title>
			<text transform="matrix(1 0 0 1 450.4143 88.8413)" font-size="18px" cursor="pointer" font-family="YouYuan">2</text>
		</g>
		<g>
			<title>颈背部</title>
			<text transform="matrix(1 0 0 1 445.9146 161.7002)" font-size="18px" cursor="pointer" font-family="YouYuan">14</text>
		</g>
		<g>
			<title>腹部（后）</title>
			<text transform="matrix(1 0 0 1 445.9141 218.7889)" font-size="18px" cursor="pointer" font-family="YouYuan">16</text>
		</g>
		<g>
			<title>左上臂（外侧）</title>
			<text transform="matrix(1 0 0 1 377.6143 205.1593)" font-size="18px" cursor="pointer" font-family="YouYuan">6</text>
		</g>
		<g>
			<title>左前臂（外侧）</title>
			<text transform="matrix(1 0 0 1 362.8001 282.2863)" font-size="18px" cursor="pointer" font-family="YouYuan">10</text>
		</g>
		<g>
			<title>右前臂（外侧）</title>
			<text transform="matrix(1 0 0 1 534.0287 282.8477)" font-size="18px" cursor="pointer" font-family="YouYuan">8</text>
		</g>
		<g>
			<title>右上臂（外侧）</title>
			<text transform="matrix(1 0 0 1 523.2144 205.1597)" font-size="18px" cursor="pointer" font-family="YouYuan">4</text>
		</g>
		<g>
			<title>腰部（后）</title>
			<text transform="matrix(1 0 0 1 445.6351 263.6671)" font-size="18px" cursor="pointer" font-family="YouYuan">18</text>
		</g>
		<g>
			<title>腰骶部（左）</title>
			<text transform="matrix(1 0 0 1 419.5546 288.5993)" font-size="18px" cursor="pointer" font-family="YouYuan">23</text>
		</g>
		<g>
			<title>腰骶部（右）</title>
			<text transform="matrix(1 0 0 1 472.2742 288.5992)" font-size="18px" cursor="pointer" font-family="YouYuan">20</text>
		</g>
		<g>
			<title>臀部（右）</title>
			<text transform="matrix(1 0 0 1 480.0568 313.1655)" font-size="18px" cursor="pointer" font-family="YouYuan">21</text>
		</g>
		<g>
			<title>小腿（右后）</title>
			<text transform="matrix(1 0 0 1 480.0573 476.9737)" font-size="18px" cursor="pointer" font-family="YouYuan">30</text>
		</g>
		<g>
			<title>臀部（左）</title>
			<text transform="matrix(1 0 0 1 413.0613 314.3799)" font-size="18px" cursor="pointer" font-family="YouYuan">24</text>
		</g>
		<g>
			<title>大腿（左后）</title>
			<text transform="matrix(1 0 0 1 413.0213 379.7686)" font-size="18px" cursor="pointer" font-family="YouYuan">28</text>
		</g>
		<g>
			<title>大腿（右后）</title>
			<text transform="matrix(1 0 0 1 480.0571 380.7689)" font-size="18px" cursor="pointer" font-family="YouYuan">26</text>
		</g>
		<g>
			<title>小腿（左后）</title>
			<text transform="matrix(1 0 0 1 411.7712 476.9738)" font-size="18px" cursor="pointer" font-family="YouYuan">32</text>
		</g>
	</g>
	<text transform="matrix(1 0 0 1 40.2573 47.5713)" font-size="24px" cursor="pointer" font-family="YouYuan" font-weight="bold">正面</text>
	<text transform="matrix(1 0 0 1 320.486 47.5714)" font-size="24px" cursor="pointer" font-family="YouYuan" font-weight="bold">背面</text>
	<g id="label_x5F_view">
	</g>
</svg>