<?xml version="1.0" encoding="utf-8"?>
<!-- Generator: Adobe Illustrator 24.1.3, SVG Export Plug-In . SVG Version: 6.00 Build 0)  -->
<svg version="1.1" id="layer_1" xmlns="http://www.w3.org/2000/svg" xmlns:xlink="http://www.w3.org/1999/xlink" x="0px" y="0px"
	 viewBox="0 0 613 429" style="enable-background:new 0 0 613 429;" xml:space="preserve">
<style type="text/css">
	
		.st0{fill-rule:evenodd;clip-rule:evenodd;fill:#FFFFFF;stroke:#30518F;stroke-width:0.75;stroke-linecap:square;stroke-miterlimit:3;}
	.st1{fill:#31528F;}
	.st2{font-family:'AdobeSongStd-Light-GBpc-EUC-H';}
	.st3{font-size:18px;}
	.st4{fill-rule:evenodd;clip-rule:evenodd;fill:#F7CBAC;stroke:#F7CBAC;stroke-width:0.25;stroke-miterlimit:3;}
	.st5{fill-rule:evenodd;clip-rule:evenodd;fill:#F4B183;stroke:#F4B183;stroke-width:0.25;stroke-miterlimit:3;}
	.st6{fill-rule:evenodd;clip-rule:evenodd;fill:#C55A11;stroke:#C55A11;stroke-width:0.25;stroke-miterlimit:3;}
	.st7{fill-rule:evenodd;clip-rule:evenodd;fill:#833C0B;stroke:#833C0B;stroke-width:0.25;stroke-miterlimit:3;}
	.st8{fill:none;stroke:#C8C8C8;stroke-linecap:square;stroke-miterlimit:3;}
	.st9{font-size:13.9999px;}
	.st10{fill:none;}
	.st11{font-family:'ArialMT';}
	.st12{font-size:16px;}
	.st13{fill:none;stroke:#C7C8C8;stroke-linecap:round;stroke-linejoin:round;stroke-miterlimit:3;}
</style>
<g id="group4-1" transform="translate(68.1554 -20.8346)">
	<g id="group5-2">
		<path id="shape5-5" class="st0" d="M-59,439.7h593.1V29.3H-59V439.7L-59,439.7z"/>
	</g>
	<g id="group7-7" transform="translate(0 -376.423)">
		<text id="shape7-12" transform="matrix(1 0 0 1 -53 428.7346)" class="st1 st2 st3">疼痛等级</text>
	</g>
</g>
<g id="shape59-19" transform="translate(243.175 -357.034)">
	<path class="st4" d="M-54.3,422.2v-14.1H-59v31.6h4.7v-14.1l12.3-1.7L-54.3,422.2L-54.3,422.2z"/>
</g>
<g id="shape60-21" transform="translate(243.175 -262.063)">
	<path class="st5" d="M-54.3,423.1v-28.5l12.3-1.7l-12.3-1.7v-28.5L-42,361l-12.3-1.7v-14.4H-59v95h4.7v-13.3l12.3-1.7L-54.3,423.1
		L-54.3,423.1z"/>
</g>
<g id="shape61-23" transform="translate(243.175 -166.819)">
	<path class="st6" d="M-54.3,423.6v-28.5l12.3-1.7l-12.3-1.7v-28.5l12.3-1.7l-12.3-1.7v-15.3H-59v95.2h4.7V427l12.3-1.7
		C-42,425.4-54.3,423.6-54.3,423.6z"/>
</g>
<g id="shape62-25" transform="translate(243.175 -32.0712)">
	<path class="st7" d="M-54.3,416.7v-28.5l12.3-1.7l-12.3-1.7v-28.5l12.3-1.7l-12.3-1.7v-28.5l12.3-1.7l-12.3-1.7v-16H-59v134.7h4.7
		v-19.6l12.3-1.7L-54.3,416.7L-54.3,416.7z"/>
</g>
<g id="shape63-27" transform="matrix(0 -1 -1 0 682.259 92.9892)">
	<path class="st8" d="M10.3,500.5v4.9c0,2,1.6,3.6,3.6,3.6h8.6c2,0,3.6,1.6,3.6,3.6l0,0c0-2,1.6-3.6,3.6-3.6l0,0h8.6
		c2,0,3.6-1.6,3.6-3.6v-4.9"/>
	<text transform="matrix(0 -1 -1 0 30.7653 533.4)" class="st2 st9">无</text>
	<text transform="matrix(0 -1 -1 0 12.1314 533.4)" class="st2 st9">痛</text>
</g>
<g id="shape64-32" transform="matrix(0 -1 -1 0 682.259 188.244)">
	<path class="st8" d="M10.3,500.5v4.9c0,2,1.6,3.6,3.6,3.6h40.4c2,0,3.6,1.6,3.6,3.6l0,0c0-2,1.6-3.6,3.6-3.6l0,0h40.4
		c2,0,3.6-1.6,3.6-3.6v-4.9"/>
	<text transform="matrix(0 -1 -1 0 79.8253 533.4)" class="st2 st9">轻</text>
	<text transform="matrix(0 -1 -1 0 63.0254 533.4)" class="st2 st9">度</text>
	<text transform="matrix(0 -1 -1 0 46.2255 533.4)" class="st2 st9">疼</text>
	<text transform="matrix(0 -1 -1 0 28.0536 533.4)" class="st2 st9">痛</text>
</g>
<g id="shape66-39" transform="matrix(0 -1 -1 0 682.259 417.952)">
	<path class="st8" d="M10.3,500.5v4.9c0,2,1.6,3.6,3.6,3.6H74c2,0,3.6,1.6,3.6,3.6l0,0c0-2,1.6-3.6,3.6-3.6l0,0h60.1
		c2,0,3.6-1.6,3.6-3.6l0,0v-4.9"/>
	<text transform="matrix(0 -1 -1 0 99.5653 533.4)" class="st2 st9">重</text>
	<text transform="matrix(0 -1 -1 0 82.7654 533.4)" class="st2 st9">度</text>
	<text transform="matrix(0 -1 -1 0 65.9655 533.4)" class="st2 st9">疼</text>
	<text transform="matrix(0 -1 -1 0 47.7936 533.4)" class="st2 st9">痛</text>
</g>
<g id="shape67-46" transform="matrix(0 -1 -1 0 682.259 283.204)">
	<path class="st8" d="M10.3,500.5v4.9c0,2,1.6,3.6,3.6,3.6h40.4c2,0,3.6,1.6,3.6,3.6l0,0c0-2,1.6-3.6,3.6-3.6l0,0h40.4
		c2,0,3.6-1.6,3.6-3.6v-4.9"/>
	<text transform="matrix(0 -1 -1 0 79.8253 533.4)" class="st2 st9">中</text>
	<text transform="matrix(0 -1 -1 0 63.0254 533.4)" class="st2 st9">度</text>
	<text transform="matrix(0 -1 -1 0 46.2255 533.4)" class="st2 st9">疼</text>
	<text transform="matrix(0 -1 -1 0 28.0536 533.4)" class="st2 st9">痛</text>
</g>
<g id="pain-label-level0" transform="translate(259.61 -363.173)">
	<path class="st10" d="M-59,420.1h21.8v19.7H-59V420.1z"/>
	<text transform="matrix(1 0 0 1 -52.08 434.7047)" class="st11 st12">0</text>
</g>
<g id="pain-label-level1" transform="translate(259.61 -331.207)">
	<path class="st10" d="M-59,420.1h21.8v19.7H-59V420.1z"/>
	<text transform="matrix(1 0 0 1 -52.08 434.7047)" class="st11 st12">1</text>
</g>
<g id="pain-label-level2" transform="translate(259.61 -299.241)">
	<path class="st10" d="M-59,420.1h21.8v19.7H-59V420.1z"/>
	<text transform="matrix(1 0 0 1 -52.08 434.7047)" class="st11 st12">2</text>
</g>
<g id="pain-label-level3" transform="translate(259.61 -267.275)">
	<path class="st10" d="M-59,420.1h21.8v19.7H-59V420.1z"/>
	<text transform="matrix(1 0 0 1 -52.08 434.7047)" class="st11 st12">3</text>
</g>
<g id="pain-label-level4" transform="translate(259.61 -235.309)">
	<path class="st10" d="M-59,420.1h21.8v19.7H-59V420.1z"/>
	<text transform="matrix(1 0 0 1 -52.08 434.7047)" class="st11 st12">4</text>
</g>
<g id="pain-label-level5" transform="translate(259.61 -203.342)">
	<path class="st10" d="M-59,420.1h21.8v19.7H-59V420.1z"/>
	<text transform="matrix(1 0 0 1 -52.08 434.7047)" class="st11 st12">5</text>
</g>
<g id="pain-label-level6" transform="translate(259.61 -171.376)">
	<path class="st10" d="M-59,420.1h21.8v19.7H-59V420.1z"/>
	<text transform="matrix(1 0 0 1 -52.08 434.7047)" class="st11 st12">6</text>
</g>
<g id="pain-label-level7" transform="translate(259.61 -139.41)">
	<path class="st10" d="M-59,420.1h21.8v19.7H-59V420.1z"/>
	<text transform="matrix(1 0 0 1 -52.08 434.7047)" class="st11 st12">7</text>
</g>
<g id="pain-label-level8" transform="translate(259.61 -107.444)">
	<path class="st10" d="M-59,420.1h21.8v19.7H-59V420.1z"/>
	<text transform="matrix(1 0 0 1 -52.08 434.7047)" class="st11 st12">8</text>
</g>
<g id="pain-label-level9" transform="translate(259.61 -75.4779)">
	<path class="st10" d="M-59,420.1h21.8v19.7H-59V420.1z"/>
	<text transform="matrix(1 0 0 1 -52.08 434.7047)" class="st11 st12">9</text>
</g>
<g id="pain-label-level10" transform="translate(259.61 -43.5118)">
	<path class="st10" d="M-59,420.1h24.4v19.7H-59V420.1z"/>
	<text transform="matrix(1 0 0 1 -54.81 434.7047)" class="st11 st12">1</text>
	<text transform="matrix(1 0 0 1 -45.9116 434.7047)" class="st11 st12">0</text>
</g>
<g id="pain-flag-level0" transform="translate(296.608 -366.834)">
	<path class="st4" d="M-59,439.6v0.1h51.1l0,0l0,0l6-6.9l-6-6.9l0,0l0,0H-59v0.1l5.9,6.7L-59,439.6z"/>
</g>
<g id="pain-flag-level1" transform="translate(296.608 -334.865)">
	<path class="st5" d="M-59,439.6v0.1h51.1l0,0l0,0l6-6.9l-6-6.9l0,0l0,0H-59v0.1l5.9,6.7L-59,439.6z"/>
</g>
<g id="pain-flag-level2" transform="translate(296.608 -302.895)">
	<path class="st5" d="M-59,439.6v0.1h51.1l0,0l0,0l6-6.9l-6-6.9l0,0l0,0H-59v0.1l5.9,6.7L-59,439.6z"/>
</g>
<g id="pain-flag-level3" transform="translate(296.608 -270.926)">
	<path class="st5" d="M-59,439.6v0.1h51.1l0,0l0,0l6-6.9l-6-6.9l0,0l0,0H-59v0.1l5.9,6.7L-59,439.6z"/>
</g>
<g id="pain-flag-level4" transform="translate(296.608 -238.956)">
	<path class="st6" d="M-59,439.6v0.1h51.1l0,0l0,0l6-6.9l-6-6.9l0,0l0,0H-59v0.1l5.9,6.7L-59,439.6z"/>
</g>
<g id="pain-flag-level5" transform="translate(296.608 -206.987)">
	<path class="st6" d="M-59,439.6v0.1h51.1l0,0l0,0l6-6.9l-6-6.9l0,0l0,0H-59v0.1l5.9,6.7L-59,439.6z"/>
</g>
<g id="pain-flag-level6" transform="translate(297.958 -175.018)">
	<path class="st6" d="M-59,439.6v0.1h51.1l0,0l0,0l6-6.9l-6-6.9l0,0l0,0H-59v0.1l5.9,6.7L-59,439.6z"/>
</g>
<g id="pain-flag-level7" transform="translate(297.958 -143.048)">
	<path class="st6" d="M-59,439.6v0.1h51.1l0,0l0,0l6-6.9l-6-6.9l0,0l0,0H-59v0.1l5.9,6.7L-59,439.6z"/>
</g>
<g id="pain-flag-level8" transform="translate(297.958 -111.079)">
	<path class="st7" d="M-59,439.6v0.1h51.1l0,0l0,0l6-6.9l-6-6.9l0,0l0,0H-59v0.1l5.9,6.7L-59,439.6z"/>
</g>
<g id="pain-flag-level9" transform="translate(297.958 -79.1094)">
	<path class="st7" d="M-59,439.6v0.1h51.1l0,0l0,0l6-6.9l-6-6.9l0,0l0,0H-59v0.1l5.9,6.7L-59,439.6z"/>
</g>
<g id="pain-flag-level10" transform="translate(297.958 -47.14)">
	<path class="st7" d="M-59,439.6v0.1h51.1l0,0l0,0l6-6.9l-6-6.9l0,0l0,0H-59v0.1l5.9,6.7L-59,439.6z"/>
</g>
<g id="pain-desc-level0" transform="translate(379.238 -363.169)">
	<path class="st13" d="M-56.2,419.5h37.6c1.6,0,2.8,1.3,2.8,2.8v14.5c0,1.6-1.3,2.8-2.8,2.8h-37.6c-1.6,0-2.8-1.3-2.8-2.8v-14.5
		C-59,420.8-57.7,419.5-56.2,419.5z"/>
	<text transform="matrix(1 0 0 1 -55 433.8448)" class="st2 st9">无痛</text>
</g>
<g id="pain-desc-level1" transform="translate(379.238 -331.26)">
	<path class="st13" d="M-53.4,419.5h216.5c3.2,0,5.6,1.3,5.6,2.8v14.5c0,1.6-2.6,2.8-5.6,2.8H-53.4c-3.2,0-5.6-1.3-5.6-2.8v-14.5
		C-59,420.8-56.4,419.5-53.4,419.5z"/>
	<text transform="matrix(1 0 0 1 -55 433.8447)" class="st2 st9">安静平卧时不痛， 翻身咳嗽时疼痛</text>
</g>
<g id="pain-desc-level5" transform="translate(379.238 -203.624)">
	<path class="st13" d="M-56.2,419.5h146c1.6,0,2.8,1.3,2.8,2.8v14.5c0,1.6-1.3,2.8-2.8,2.8h-146c-1.6,0-2.8-1.3-2.8-2.8v-14.5
		C-59,420.8-57.7,419.5-56.2,419.5z"/>
	<text transform="matrix(1 0 0 1 -55 433.8447)" class="st2 st9">安静平卧时，持续疼痛</text>
</g>
<g id="pain-desc-level3" transform="translate(379.238 -267.442)">
	<path class="st13" d="M-56.2,419.5h216.6c1.6,0,2.8,1.3,2.8,2.8v14.5c0,1.6-1.3,2.8-2.8,2.8H-56.2c-1.6,0-2.8-1.3-2.8-2.8v-14.5
		C-59,420.8-57.7,419.5-56.2,419.5z"/>
	<text transform="matrix(1 0 0 1 -55 433.8447)" class="st2 st9">安静平卧时不痛，咳嗽深呼吸疼痛</text>
</g>
<g id="pain-desc-level2" transform="translate(379.238 -299.351)">
	<path class="st13" d="M-56.2,419.5h146c1.6,0,2.8,1.3,2.8,2.8v14.5c0,1.6-1.3,2.8-2.8,2.8h-146c-1.6,0-2.8-1.3-2.8-2.8v-14.5
		C-59,420.8-57.7,419.5-56.2,419.5z"/>
	<text transform="matrix(1 0 0 1 -55 433.8447)" class="st2 st9">咳嗽疼痛，深呼吸疼痛</text>
</g>
<g id="pain-desc-level4" transform="translate(379.238 -235.533)">
	<path class="st13" d="M-56.2,419.5h146c1.6,0,2.8,1.3,2.8,2.8v14.5c0,1.6-1.3,2.8-2.8,2.8h-146c-1.6,0-2.8-1.3-2.8-2.8v-14.5
		C-59,420.8-57.7,419.5-56.2,419.5z"/>
	<text transform="matrix(1 0 0 1 -55 433.8447)" class="st2 st9">安静平卧时，间歇疼痛</text>
</g>
<g id="pain-desc-level6" transform="translate(379.238 -171.715)">
	<path class="st13" d="M-56.2,419.5h146c1.6,0,2.8,1.3,2.8,2.8v14.5c0,1.6-1.3,2.8-2.8,2.8h-146c-1.6,0-2.8-1.3-2.8-2.8v-14.5
		C-59,420.8-57.7,419.5-56.2,419.5z"/>
	<text transform="matrix(1 0 0 1 -55 433.8447)" class="st2 st9">安静平卧时，疼痛较痛</text>
</g>
<g id="pain-desc-level7" transform="translate(379.238 -139.806)">
	<path class="st13" d="M-56.2,419.5h201.8c1.6,0,2.8,1.3,2.8,2.8v14.5c0,1.6-1.3,2.8-2.8,2.8H-56.2c-1.6,0-2.8-1.3-2.8-2.8v-14.5
		C-59,420.8-57.7,419.5-56.2,419.5z"/>
	<text transform="matrix(1 0 0 1 -55 433.8447)" class="st2 st9">疼痛较重，翻转不安，无法入睡</text>
</g>
<g id="pain-desc-level9" transform="translate(379.238 -75.9878)">
	<path class="st13" d="M-56.2,419.5H76.2c1.6,0,2.8,1.3,2.8,2.8v14.5c0,1.6-1.3,2.8-2.8,2.8H-56.2c-1.6,0-2.8-1.3-2.8-2.8v-14.5
		C-59,420.8-57.7,419.5-56.2,419.5z"/>
	<text transform="matrix(1 0 0 1 -55 433.8447)" class="st2 st9">剧烈疼痛，无法忍受</text>
</g>
<g id="pain-desc-level8" transform="translate(379.238 -107.897)">
	<path class="st13" d="M-56.2,419.5H104c1.6,0,2.8,1.3,2.8,2.8v14.5c0,1.6-1.3,2.8-2.8,2.8H-56.2c-1.6,0-2.8-1.3-2.8-2.8v-14.5
		C-59,420.8-57.7,419.5-56.2,419.5z"/>
	<text transform="matrix(1 0 0 1 -55 433.8447)" class="st2 st9">持续疼痛难忍，全身大汗</text>
</g>
<g id="pain-desc-level10" transform="translate(379.238 -44.0787)">
	<path class="st13" d="M-56.2,419.5H60.3c1.6,0,2.8,1.3,2.8,2.8v14.5c0,1.6-1.3,2.8-2.8,2.8H-56.2c-1.6,0-2.8-1.3-2.8-2.8v-14.5
		C-59,420.8-57.7,419.5-56.2,419.5z"/>
	<text transform="matrix(1 0 0 1 -55 433.8447)" class="st2 st9">最疼痛，生不如死</text>
</g>
<g id="shape142-141" transform="translate(131.206 -37.508)">
	<path class="st10" d="M-59,397.2h42.5v42.5H-59V397.2z"/>
	
		<image style="overflow:visible;enable-background:new    ;" width="364" height="373" xlink:href="D5E246A7.jpg"  transform="matrix(0.1154 0 0 0.1154 -58.7388 396.9707)">
	</image>
	<path class="st10" d="M-59,397.2h42.5v42.5H-59V397.2z"/>
</g>
<g id="shape143-145" transform="translate(131.206 -346.234)">
	<path class="st10" d="M-59,397.2h42.5v42.5H-59V397.2z"/>
	
		<image style="overflow:visible;enable-background:new    ;" width="364" height="364" xlink:href="D5E246A2.jpg"  transform="matrix(0.1168 0 0 0.1168 -59 397.2287)">
	</image>
	<path class="st10" d="M-59,397.2h42.5v42.5H-59V397.2z"/>
</g>
<g id="shape144-149" transform="translate(131.206 -284.489)">
	<path class="st10" d="M-59,397.2h42.5v42.5H-59V397.2z"/>
	
		<image style="overflow:visible;enable-background:new    ;" width="364" height="373" xlink:href="D5E246A1.jpg"  transform="matrix(0.1154 0 0 0.1154 -58.7388 396.9707)">
	</image>
	<path class="st10" d="M-59,397.2h42.5v42.5H-59V397.2z"/>
</g>
<g id="shape145-153" transform="translate(131.206 -222.744)">
	<path class="st10" d="M-59,397.2h42.5v42.5H-59V397.2z"/>
	
		<image style="overflow:visible;enable-background:new    ;" width="364" height="373" xlink:href="D5E246AE.jpg"  transform="matrix(0.1154 0 0 0.1154 -58.7388 396.9707)">
	</image>
	<path class="st10" d="M-59,397.2h42.5v42.5H-59V397.2z"/>
</g>
<g id="shape146-157" transform="translate(131.206 -160.998)">
	<path class="st10" d="M-59,397.2h42.5v42.5H-59V397.2z"/>
	
		<image style="overflow:visible;enable-background:new    ;" width="364" height="373" xlink:href="D5E246A0.jpg"  transform="matrix(0.1154 0 0 0.1154 -58.7388 396.9707)">
	</image>
	<path class="st10" d="M-59,397.2h42.5v42.5H-59V397.2z"/>
</g>
<g id="shape147-161" transform="translate(131.206 -99.2532)">
	<path class="st10" d="M-59,397.2h42.5v42.5H-59V397.2z"/>
	
		<image style="overflow:visible;enable-background:new    ;" width="364" height="364" xlink:href="D5E246A6.jpg"  transform="matrix(0.1168 0 0 0.1168 -59 397.2287)">
	</image>
	<path class="st10" d="M-59,397.2h42.5v42.5H-59V397.2z"/>
</g>
</svg>
